<svg xmlns="http://www.w3.org/2000/svg" version="1.1" xmlns:xlink="http://www.w3.org/1999/xlink" xmlns:svgjs="http://svgjs.dev/svgjs" width="200" height="124" viewBox="0 0 2000 1247"><g transform="matrix(1,0,0,1,-1.2121212121212466,0.504858299595071)"><svg viewBox="0 0 396 247" data-background-color="#ffffff" preserveAspectRatio="xMidYMid meet" height="1247" width="2000" xmlns="http://www.w3.org/2000/svg" xmlns:xlink="http://www.w3.org/1999/xlink"><g id="tight-bounds" transform="matrix(1,0,0,1,0.2400000000000091,-0.09999999999999432)"><svg viewBox="0 0 395.52 247.2" height="247.2" width="395.52"><g><svg></svg></g><g><svg viewBox="0 0 395.52 247.2" height="247.2" width="395.52"><g transform="matrix(1,0,0,1,75.54432,60.79748907014682)"><svg viewBox="0 0 244.43135999999998 125.60502185970635" height="125.60502185970635" width="244.43135999999998"><g><svg viewBox="0 0 244.43135999999998 125.60502185970635" height="125.60502185970635" width="244.43135999999998"><g><svg viewBox="0 0 244.43135999999998 125.60502185970635" height="125.60502185970635" width="244.43135999999998"><g><svg viewBox="0 0 244.43135999999998 125.60502185970635" height="125.60502185970635" width="244.43135999999998"><g id="textblocktransform"><svg viewBox="0 0 244.43135999999998 125.60502185970635" height="125.60502185970635" width="244.43135999999998" id="textblock"><g><svg viewBox="0 0 244.43135999999998 125.60502185970635" height="125.60502185970635" width="244.43135999999998"><g transform="matrix(1,0,0,1,0,0)"><svg width="244.43135999999998" viewBox="2.8 -47 91.95 47.25" height="125.60502185970635" data-palette-color="#6936f5"><path d="M15 0.25Q11.55 0.25 8.78-1.45 6-3.15 4.4-6.38 2.8-9.6 2.8-14L2.8-14Q2.8-21.6 6.05-28.08 9.3-34.55 15.65-38.48 22-42.4 30.9-42.4L30.9-42.4Q33.2-42.4 35.83-42.05 38.45-41.7 40.6-41L40.6-41Q42-40.6 42-39L42-39Q42-37.7 41.03-36.55 40.05-35.4 38.75-35.4L38.75-35.4Q38.35-35.4 38.15-35.45L38.15-35.45Q35.55-36.05 33.7-36.33 31.85-36.6 29.8-36.6L29.8-36.6Q23.45-36.6 19-33.52 14.55-30.45 12.35-25.4 10.15-20.35 10.15-14.5L10.15-14.5Q10.15-10.25 11.83-7.93 13.5-5.6 16.2-5.6L16.2-5.6Q19.25-5.6 21.55-8.1 23.85-10.6 25.75-16.2 27.65-21.8 29.5-31.4L29.5-31.4Q29.8-32.8 30.7-33.3 31.6-33.8 33.1-33.8L33.1-33.8Q36.65-33.8 36.65-31.5L36.65-31.5Q36.65-31.1 36.5-30.5L36.5-30.5Q35.2-25.65 34.13-19.78 33.05-13.9 33.05-10.85L33.05-10.85Q33.05-8.15 33.85-6.93 34.65-5.7 36.3-5.7L36.3-5.7Q37.9-5.7 39.35-6.78 40.8-7.85 43-10.45L43-10.45Q43.6-11.15 44.35-11.15L44.35-11.15Q45-11.15 45.38-10.55 45.75-9.95 45.75-8.9L45.75-8.9Q45.75-6.95 44.8-5.8L44.8-5.8Q42.35-2.85 40-1.3 37.65 0.25 34.25 0.25L34.25 0.25Q30.75 0.25 28.6-1.78 26.45-3.8 25.9-7.5L25.9-7.5Q22.2 0.25 15 0.25L15 0.25ZM45.25 0.25Q43.35 0.25 42.57-1.75 41.8-3.75 41.8-8.15L41.8-8.15Q41.8-14.65 43.65-20.5L43.65-20.5Q44.1-21.95 45.12-22.63 46.15-23.3 48-23.3L48-23.3Q49-23.3 49.4-23.05 49.8-22.8 49.8-22.1L49.8-22.1Q49.8-21.3 49.05-18.5L49.05-18.5Q48.55-16.5 48.25-15 47.95-13.5 47.75-11.3L47.75-11.3Q49.4-15.6 51.45-18.3 53.5-21 55.47-22.15 57.45-23.3 59.1-23.3L59.1-23.3Q62.35-23.3 62.35-20.05L62.35-20.05Q62.35-19.4 61.9-16.9L61.9-16.9Q61.5-14.9 61.5-14.4L61.5-14.4Q61.5-12.65 62.75-12.65L62.75-12.65Q64.15-12.65 66.35-14.85L66.35-14.85Q67-15.5 67.7-15.5L67.7-15.5Q68.35-15.5 68.72-14.93 69.1-14.35 69.1-13.4L69.1-13.4Q69.1-11.55 68.1-10.5L68.1-10.5Q66.7-9.05 64.82-8.03 62.95-7 60.85-7L60.85-7Q58.2-7 56.82-8.35 55.45-9.7 55.45-12L55.45-12Q55.45-12.75 55.6-13.5L55.6-13.5Q55.7-14.5 55.7-14.85L55.7-14.85Q55.7-15.65 55.15-15.65L55.15-15.65Q54.4-15.65 53.17-13.98 51.95-12.3 50.75-9.55 49.55-6.8 48.8-3.75L48.8-3.75Q48.25-1.4 47.52-0.58 46.8 0.25 45.25 0.25L45.25 0.25ZM93.35-11.15Q94-11.15 94.37-10.55 94.75-9.95 94.75-8.9L94.75-8.9Q94.75-6.9 93.8-5.8L93.8-5.8Q91.55-3.05 89.25-1.4 86.95 0.25 83.8 0.25L83.8 0.25Q79.95 0.25 77.6-1.95 75.25-4.15 75.25-7.8L75.25-7.8Q75.25-9.75 77.25-10.6L77.25-10.6Q79.45-11.55 80.4-12.63 81.35-13.7 81.35-15.25L81.35-15.25Q81.35-16.15 80.97-16.6 80.6-17.05 80.05-17.05L80.05-17.05Q78.7-17.05 77.07-15.1 75.45-13.15 74.05-10.08 72.65-7 71.85-3.75L71.85-3.75Q71.3-1.4 70.57-0.58 69.85 0.25 68.3 0.25L68.3 0.25Q66.75 0.25 66.02-0.88 65.3-2 65.05-4.35 64.8-6.7 64.8-11.25L64.8-11.25Q64.8-18.95 66.37-27.3 67.95-35.65 71.02-41.33 74.1-47 78.4-47L78.4-47Q80.7-47 82.12-45.03 83.55-43.05 83.55-39.9L83.55-39.9Q83.55-34.85 80.6-29.43 77.65-24 71-16.75L71-16.75Q70.85-14.15 70.85-11.4L70.85-11.4Q73.25-17.65 76.35-20.48 79.45-23.3 82.15-23.3L82.15-23.3Q84.65-23.3 86.17-21.6 87.7-19.9 87.7-17.4L87.7-17.4Q87.7-14.65 86.3-12.35 84.9-10.05 81.5-8.25L81.5-8.25Q81.7-6.9 82.72-6.08 83.75-5.25 85.2-5.25L85.2-5.25Q86.75-5.25 88.2-6.45 89.65-7.65 92-10.45L92-10.45Q92.6-11.15 93.35-11.15L93.35-11.15ZM77.35-42.05Q76.45-42.05 75.35-39.48 74.25-36.9 73.22-32.52 72.2-28.15 71.55-23L71.55-23Q74.65-26.65 76.67-30.95 78.7-35.25 78.7-38.75L78.7-38.75Q78.7-40.35 78.35-41.2 78-42.05 77.35-42.05L77.35-42.05Z" opacity="1" transform="matrix(1,0,0,1,0,0)" fill="#6936f5" class="wordmark-text-0" data-fill-palette-color="primary" id="text-0"></path></svg></g></svg></g></svg></g></svg></g></svg></g></svg></g></svg></g><g><path d="M0 123.6c0-68.262 55.338-123.6 123.6-123.6 38.858 0 73.528 17.932 96.186 45.971h-7.399c-21.618-24.705-53.38-40.308-88.787-40.307-65.134 0-117.936 52.802-117.936 117.936 0 65.134 52.802 117.936 117.936 117.936 35.407 0 67.169-15.603 88.787-40.307l7.399 0c-22.658 28.04-57.328 45.971-96.186 45.971-68.262 0-123.6-55.338-123.6-123.6z" fill="#6936f5" stroke="transparent" data-fill-palette-color="tertiary"></path></g></svg></g><defs></defs></svg><rect width="395.52" height="247.2" fill="none" stroke="none" visibility="hidden"></rect></g></svg></g></svg>